PathFileType	4	(X/Y/Z)	70_1_21_p0_0-357.trc
DataRate	CameraRate	NumFrames	NumMarkers	Units	OrigDataRate	OrigDataStartFrame	OrigNumFrames
48.0	48.0	6	27	m	48.0	0	358
Frame#	Time	RHip			RKnee			RAnkle			RBigToe			RSmallToe			RHeel			LHip			LKnee			LAnkle			LBigToe			LSmallToe			LHeel			Neck			Head			Nose			RShoulder			RElbow			RWrist			RThumb			RIndex			RPinky			LShoulder			LElbow			LWrist			LThumb			LIndex			LPinky			
		X1	Y1	Z1	X2	Y2	Z2	X3	Y3	Z3	X4	Y4	Z4	X5	Y5	Z5	X6	Y6	Z6	X7	Y7	Z7	X8	Y8	Z8	X9	Y9	Z9	X10	Y10	Z10	X11	Y11	Z11	X12	Y12	Z12	X13	Y13	Z13	X14	Y14	Z14	X15	Y15	Z15	X16	Y16	Z16	X17	Y17	Z17	X18	Y18	Z18	X19	Y19	Z19	X20	Y20	Z20	X21	Y21	Z21	X22	Y22	Z22	X23	Y23	Z23	X24	Y24	Z24	X25	Y25	Z25	X26	Y26	Z26	X27	Y27	Z27	
0	0.0	0.3721830308769436	0.5127149997895314	0.0641181238617021	0.37697474619484944	0.6955712321283225	0.4744951566986501	0.3844579136066049	0.8094911689075526	0.8891883036643571	0.31729223403324586	0.6596086738980033	1.0096555831551404	0.38991661398584926	0.6437025800464788	0.9819970266613068	0.36586249054821923	0.9391937698844469	0.9777413930298842	0.13038552410480228	0.6049419298642476	0.06985450818301993	0.16454898031928555	0.7158040176328723	0.4832768402552271	0.1682918261383287	0.8258687032086741	0.8990592511114	0.17650453438803831	0.6716978177455405	0.9950827887530159	0.11512070894041752	0.7191981102556396	0.9805218474166009	0.18583310153845367	0.8802962911787738	0.9420819202895687	0.23379692028242313	0.4060392952148182	-0.5627016257978797	0.21158488258625005	0.2857657588956857	-0.8152315800994178	0.20354153642955766	0.2573994554733209	-0.6613166994669958	0.42861801789728265	0.43903710120719336	-0.4739875440813079	0.49185202977886466	0.4399152205237938	-0.18178130072736903	0.4824137760946685	0.4729659279715078	0.10904899283869239	0.4143992775903805	0.44128560399206807	0.21385759397611193	0.4333028706834844	0.43869041641248246	0.22757833834853833	0.4664084953583734	0.47490114078237355	0.22686355551414278	0.06459170955809261	0.4718117573450204	-0.4724590876798454	0.018157098906047223	0.5727301580167974	-0.19464377911060438	0.02154295744293141	0.6077322291667273	0.10638438068691658	0.06607033226220566	0.5340065755499519	0.20249745831042465	0.04278250513729083	0.5313505192241793	0.22565043534168036	0.022187429607090713	0.6210218712991289	0.22911184852237348
1	0.020833333333333332	0.37237592595559993	0.5126187619043125	0.06797098362286921	0.381202118379075	0.6964775893953876	0.47474476713423525	0.38580684488909067	0.8130953216147536	0.890290851636414	0.3181845220715888	0.6579460112243416	1.0004691795039116	0.390457399027546	0.6335209299072517	0.9785461074696399	0.36755375372174665	0.9433046053906816	0.9760370903186909	0.13060565885790637	0.604698016571295	0.07349335557196023	0.16463877019409043	0.7158535649026286	0.4835289846632327	0.16534248761244733	0.842585901209809	0.9042252721669849	0.17643436051394826	0.6716991725528618	0.9949751519471469	0.11524173562616365	0.7192484698258935	0.9804498976223057	0.19088159428568308	0.8845485721883053	0.9433981060792282	0.23376650634622412	0.4061834095236913	-0.5628635710839328	0.2115758364675822	0.28576515384493717	-0.8150924500225281	0.20348636831149242	0.25732904703550813	-0.661292327175908	0.4229452431419815	0.4270723701988589	-0.4727286382492733	0.49184069309381173	0.43972968342155355	-0.18175106280506462	0.4839895295735066	0.4585450110583214	0.10783797032316082	0.4168527844925052	0.4541850615704807	0.21486601642890876	0.4336029980037301	0.4387471034135668	0.22740006830052173	0.4733131404089272	0.4741908896204788	0.22993110093046004	0.06456019467728591	0.4725949881612383	-0.4693486856824787	0.01776257147403367	0.57363777161018	-0.19116785997473273	0.021482746502709146	0.6082394433507916	0.10659224780788534	0.06294867800050133	0.5465937590338622	0.20674267705863397	0.04688887871862507	0.5446720130347422	0.23073386554235709	0.019799724296787877	0.6379178717442827	0.23488609886352402
2	0.041666666666666664	0.37318682528245045	0.5140530593985126	0.07200848037813709	0.38108567556893136	0.6961423318434126	0.4748152369332859	0.38727846649476955	0.8156133392486012	0.8959815593984912	0.3118503513001335	0.6426506156482856	0.9954047812280645	0.38960775524326147	0.6317502952641466	0.9785158988890525	0.36940457331079796	0.922688410578018	0.970957558310857	0.1337497037460386	0.5901870591757099	0.07260817098435357	0.1646139467648708	0.7164835464420117	0.4835587623030928	0.16538709780398267	0.8424459983009525	0.9040432138577668	0.1716617775180648	0.6577774963843291	0.9899191352775016	0.11514211363237023	0.7193384665962503	0.9804051313793026	0.1908322207711159	0.8857107700305986	0.9392193420690627	0.23376123460028478	0.4055316044522244	-0.5665786973720388	0.21156867273431837	0.2857836184846488	-0.8151496304719418	0.20347909008593784	0.25746408667944704	-0.6612916495154623	0.42349156922271675	0.42833782563334316	-0.4695052911773856	0.4916435088863639	0.4398387965039948	-0.18550458156950664	0.48779986949951637	0.45880864982342523	0.10430859791052725	0.42294245656769963	0.43966751131634507	0.21291066204110043	0.44027171231386636	0.4269182515456279	0.22969761585175572	0.47389263374244184	0.4736056092823485	0.22615298224624333	0.06450415237648499	0.4723999136690213	-0.46926268338578364	0.017665837480106673	0.5735150608683813	-0.19115443442629468	0.021420154471678103	0.6086057060664928	0.10668199282965307	0.06366217954835655	0.5457344094767514	0.20586710485622914	0.04384865135469207	0.535221543030042	0.23298392485623348	0.019685345959528776	0.6389995894266924	0.23506080482156036
3	0.0625	0.3712562054868312	0.528945336063358	0.07313806599837809	0.3770300312059195	0.6956327761611808	0.474795311676217	0.3873061460331387	0.815693139390644	0.8961989938283474	0.3059637350881455	0.6288521103881478	0.990619575343607	0.38920565839567633	0.6312054040004978	0.978539656709053	0.373606248704659	0.9562037401131802	0.985369325326572	0.13055133472402147	0.6045299374145077	0.07354428736798127	0.16464432132579626	0.7162059648621623	0.48387178102963063	0.16536860385544272	0.8424685879800181	0.9040202903946096	0.1715898037831994	0.6574121291393489	0.9898075473547615	0.11519440899958205	0.7184846891551421	0.9800199804439697	0.1860546278293107	0.8810012766114071	0.9417695972872049	0.23371570709054687	0.4055246037184488	-0.5666128710191047	0.2092997180486332	0.2979554949605733	-0.8180369848015133	0.20345960182857023	0.2578708495720915	-0.6613820141165313	0.4234865152898281	0.42845575305628014	-0.46940981453693476	0.49192123034001156	0.440072810828813	-0.18183408916304517	0.48807755997916413	0.45848218260089124	0.10765187706999974	0.4232127284848307	0.43911621853446603	0.21306887229547414	0.4405364224405649	0.42688603734175906	0.22980815340045413	0.4799405036028344	0.4857946850484438	0.22748035851976003	0.06446651304827077	0.47238092336672866	-0.4691313372032225	0.01767306984796641	0.5735628436942949	-0.1911610522005729	0.021350290723573022	0.6086202217437855	0.10663231202172255	0.06030163144670645	0.5453591174789646	0.20589393052549182	0.043773551434851996	0.5354243250815016	0.23306325253104057	0.01968779912270985	0.6388860658764519	0.23506078532262026
4	0.08333333333333333	0.3712888364856505	0.5292199695275945	0.07307654501246658	0.3813232914968948	0.6964610401966164	0.47467030478651634	0.3889768539406944	0.8173182918255253	0.9056647190301914	0.3079456734139866	0.6122537389201871	0.9848607971442006	0.38894347829295184	0.6292492711176588	0.9821563722317682	0.37792821762459533	0.9399282627342569	0.9857109719272569	0.1337244295842754	0.5900565404982144	0.07245552507054243	0.1688961230033888	0.7171700961848697	0.4835898039332356	0.1654078996187817	0.8425129958778651	0.9038984211511084	0.1715860037321689	0.6574805615224456	0.9896586779874676	0.11525324760335742	0.7192083049395681	0.9801451246315289	0.19112242914143593	0.8866363822153204	0.938852766817521	0.2337290224939552	0.4062482092077063	-0.5628888888360498	0.20933105847052194	0.2980870515712312	-0.8181053365960357	0.20333936702901328	0.25781020172957786	-0.6613924473262685	0.42345111610962094	0.4285455081659221	-0.4693524866670377	0.49198692322357646	0.439115076111317	-0.18546469503866958	0.4941497155289761	0.4697311435164862	0.10832721660440649	0.42920159896876264	0.42476552956485286	0.21064304143866466	0.4398188043719236	0.4250243505295504	0.22543525859911046	0.4804722354458267	0.4858123489753044	0.23111002225388994	0.06450409995061364	0.4724501128300979	-0.4690643197638573	0.017704722069127297	0.5737209114297417	-0.19108079188296884	0.021158066137496257	0.6087761439363265	0.10279756027488651	0.05978145183235914	0.5467183248769053	0.20994971289336847	0.044408791742832	0.5374613016895916	0.2368306308212409	0.01934655232415946	0.6401589707557425	0.23884851907787658
5	0.10416666666666667	0.3712760754164434	0.5293623412661512	0.0730864110031467	0.38130400514390544	0.6965937485818173	0.47471829898224416	0.38893767552909164	0.8172247234775303	0.9058468502341097	0.308112911772679	0.6117920801736628	0.9882851041685133	0.3845816579313813	0.628855676705757	0.9818480813495485	0.371026664174179	0.9239549193669613	0.9808294999144972	0.13368185637476773	0.5900851048332416	0.07249164637828222	0.16886299704622423	0.7173127151758012	0.48355216071029666	0.16539837765115714	0.8425743930220031	0.9039868134352285	0.17163957231611945	0.6574469439968996	0.9896686124607981	0.11534309902140458	0.7188607509957138	0.9800103008495289	0.19088226783927953	0.8862478736935604	0.9392787274724159	0.23370938796052199	0.4062205051573188	-0.562838843345414	0.21362603304062597	0.30796029664266344	-0.820783750680556	0.2031516970917999	0.2573881993483453	-0.6644881264968824	0.4233861841658225	0.4286990672039266	-0.4693778076029556	0.4917892435343867	0.4396297866849959	-0.18170514590695966	0.4941327052828265	0.46964504442453375	0.10836431550980541	0.4292300129560932	0.4246054046212443	0.21045457965320194	0.44357094364561195	0.4246685763814833	0.22524165435369314	0.47998391998587825	0.4865159065090691	0.23512268504344702	0.06456641549638256	0.47254199034808964	-0.46905285544108444	0.0176867521883384	0.5738069476918594	-0.19100974480600874	0.021165359329344085	0.6088842220752172	0.10290881342298187	0.05978441812718244	0.5468486409286124	0.21014586699903032	0.04777880114135118	0.5489621496617522	0.23831935161936227	0.020115590057402096	0.6422481201178739	0.24268168023689915
